# Blender v2.78 (sub 0) OBJ File: ''
# www.blender.org
mtllib cube.mtl
o Cube.001
v 5.039731 -5.039732 5.039728
v -5.039730 -5.039730 -5.039733
v 5.039731 -5.039730 -5.039733
v -5.039730 5.039732 -5.039731
v 5.039726 5.039730 5.039736
v 5.039731 5.039732 -5.039725
v -5.039730 -5.039732 5.039728
v -5.039730 5.039730 5.039730
vn 0.0000 -1.0000 -0.0000
vn -0.0000 1.0000 0.0000
vn 1.0000 0.0000 0.0000
vn -0.0000 -0.0000 1.0000
vn -1.0000 0.0000 0.0000
vn 0.0000 0.0000 -1.0000
usemtl Material.001
s 1
f 1//1 2//1 3//1
f 4//2 5//2 6//2
f 6//3 1//3 3//3
f 5//4 7//4 1//4
f 7//5 4//5 2//5
f 3//6 4//6 6//6
f 1//1 7//1 2//1
f 4//2 8//2 5//2
f 6//3 5//3 1//3
f 5//4 8//4 7//4
f 7//5 8//5 4//5
f 3//6 2//6 4//6
